<svg width="350" height="414" viewBox="0 0 350 414" fill="none" xmlns="http://www.w3.org/2000/svg">
<g clip-path="url(#clip0_22_4)">
<path d="M199.536 398.966C199.996 408.93 195.253 413.978 185.401 413.993C178.571 414 171.737 414 164.907 413.993C155.055 413.978 150.312 408.93 150.776 398.963C157.447 392.816 165.092 388.963 174.357 388.706C184.288 388.427 192.354 392.581 199.536 398.966Z" fill="#C66D33"/>
<path d="M199.536 398.966C192.354 392.581 184.288 388.427 174.357 388.706C165.092 388.967 157.45 392.817 150.776 398.963C150.7 393.186 150.62 387.409 150.544 381.633C155.649 375.215 162.682 372.216 170.418 370.474C181.912 369.623 191.959 372.615 199.782 381.517C199.699 387.333 199.619 393.15 199.536 398.963V398.966Z" fill="#AE602D"/>
<path d="M178.868 64.5284C179.31 64.3147 179.622 64.4849 179.857 64.8688C179.527 64.7565 179.198 64.6406 178.868 64.5284Z" fill="#F7E96A"/>
<path d="M266.401 131.61C260.767 122.914 254.513 114.682 247.716 106.863C247.716 106.863 240.534 98.6161 231.472 90.1376C220.798 79.3376 208.801 70.1565 196.387 61.4825C189.684 67.3895 186.212 68.103 179.857 64.8688C179.527 64.7565 179.198 64.6406 178.868 64.5284C178.868 64.5284 178.81 64.5356 178.81 64.5392C175.817 63.9127 172.878 63.9344 170.096 65.3795C167.711 66.6217 165.157 66.868 162.534 66.792C162.11 67.7445 161.86 68.8274 161.24 69.6314C150.769 83.2491 142.87 98.3771 135.764 113.896C129.757 127.014 125.409 140.773 121.854 154.771C121.234 157.216 121.655 157.98 124.249 158.226C128.713 158.654 133.079 159.744 136.344 163.188C143.214 170.435 154.877 170.873 162.353 163.55C169.4 156.647 180.564 156.404 187.6 163.26C195.336 170.794 206.547 170.732 214.525 162.732C220.475 156.767 231.015 157.006 237.567 162.351C239.958 164.303 242.165 166.509 245.226 167.737C250.687 169.932 255.738 168.787 260.847 166.846C273.09 156.893 274.982 144.862 266.394 131.61H266.401Z" fill="#01C655"/>
<path d="M315.034 238.886C313.813 232.048 296.099 207.152 296.099 207.152C285.515 192.701 273.373 179.605 260.85 166.846C255.741 168.787 250.687 169.932 245.23 167.737C242.168 166.505 239.962 164.303 237.57 162.351C231.019 157.006 220.479 156.767 214.529 162.732C206.55 170.728 195.34 170.794 187.604 163.26C180.567 156.404 169.404 156.647 162.356 163.55C154.881 170.873 143.217 170.435 136.348 163.188C133.083 159.744 128.713 158.657 124.253 158.226C121.655 157.976 121.234 157.212 121.858 154.771C125.412 140.769 129.76 127.014 135.768 113.896C142.873 98.3807 150.772 83.2491 161.244 69.6314C161.86 68.8274 162.113 67.7445 162.537 66.792C158.91 66.2523 156.316 64.0431 153.939 61.4825C141.341 69.9755 129.412 79.2905 118.723 90.1304C108.879 99.326 102.581 106.816 102.581 106.816C95.1607 115.135 88.5625 124.077 82.5948 133.483C75.656 144.417 77.7141 157.303 87.6566 165.506C88.3378 166.067 89.356 166.368 88.9901 167.581C90.164 167.661 91.4394 167.472 92.4975 167.864C100.404 170.775 106.788 167.951 112.517 162.674C114.209 161.113 116.292 160.32 118.289 159.363C120.046 158.523 120.85 159.389 120.521 161.145C119.238 167.925 117.941 174.694 117.093 181.557C117.049 181.905 117.017 182.256 116.984 182.604L112.267 183.071L105.02 195.385L110.817 247.9H118.665C119.568 255.372 121.608 262.63 123.296 269.953C123.64 271.445 124.021 272.934 124.463 274.755C120.227 274.263 118.517 270.699 115.789 268.743C106.292 261.938 91.5337 261.913 83.5043 270.094C74.1523 279.623 59.811 282.078 48.7271 275.041C47.9916 274.574 47.0132 274.487 46.1509 274.219C38.4258 282.187 31.8385 291.1 24.9578 299.767C24.9578 299.767 7.3554 323.134 4.55453 330.791C-1.52912 342.974 -1.36607 355.339 4.19219 367.519C15.7 392.733 43.8718 396.214 60.5067 378.982C62.3293 377.091 64.5033 375.602 66.9019 374.48C66.9019 374.48 83.055 367.214 99.2913 375.287C101.241 376.146 102.788 377.555 104.353 378.945C119.484 392.4 134.01 393.244 150.555 381.64C155.66 375.222 162.693 372.223 170.429 370.481C152.472 344.264 137.851 316.365 127.894 286.12C127.199 284.009 126.67 281.839 126.075 279.695C125.843 278.855 124.996 277.964 125.833 277.149C126.666 276.338 127.593 277.207 128.376 277.472C136.402 280.199 144.152 279.728 151.461 275.346C153.906 273.879 156.153 272.006 158.283 270.091C167.284 261.996 182.763 261.547 192.14 270.163C198.061 275.599 204.623 279.409 213.236 279.08C220.221 278.812 226.149 276.537 230.903 271.72C241.208 261.275 258.796 261.42 268.746 271.659C276.808 279.953 288.837 281.379 299.284 276.186C300.802 275.433 302.403 274.85 303.965 274.187C303.921 272.593 305.374 272.083 306.219 271.159C314.683 261.905 317.853 251.221 315.049 238.893L315.034 238.886Z" fill="#01B630"/>
<path d="M123.285 269.949C121.271 261.192 118.738 252.532 118.263 243.485C117.937 243.536 117.611 243.583 117.285 243.63C117.832 243.388 118.176 242.819 118.1 242.2C117.386 236.249 114.629 210.723 117.075 188.833C118.916 172.358 120.318 163.699 121.057 159.715C121.271 158.563 120.046 157.683 119.021 158.248C117.104 159.309 114.673 160.754 113.665 161.75C113.662 161.754 113.654 161.761 113.651 161.765C113.252 162.04 112.868 162.337 112.502 162.674C106.774 167.951 100.393 170.775 92.483 167.864C91.4213 167.472 90.1495 167.661 88.9756 167.581C76.1452 179.681 64.6482 192.955 54.144 207.105C54.144 207.105 35.6105 231.305 34.7988 239.056C32.4726 252.206 35.8605 263.524 45.6146 272.821C45.9371 273.129 45.9697 273.741 46.1364 274.212C47.0024 274.476 47.9771 274.563 48.7126 275.034C59.7965 282.071 74.1378 279.616 83.4898 270.087C91.5192 261.905 106.277 261.931 115.774 268.736C118.502 270.692 120.213 274.256 124.448 274.748C124.003 272.926 123.622 271.441 123.282 269.946L123.285 269.949Z" fill="#01A62D"/>
<path d="M345.75 330.852C343 322.903 325.307 299.781 325.307 299.781C318.281 291.169 311.759 282.136 303.95 274.176C302.389 274.839 300.787 275.422 299.269 276.175C288.823 281.372 276.793 279.945 268.731 271.648C258.781 261.409 241.197 261.264 230.889 271.709C226.131 276.53 220.203 278.804 213.221 279.069C204.608 279.398 198.046 275.592 192.126 270.152C182.745 261.536 167.269 261.985 158.269 270.08C156.138 271.996 153.892 273.864 151.446 275.335C144.141 279.721 136.391 280.188 128.362 277.461C127.579 277.196 126.651 276.327 125.818 277.138C124.981 277.953 125.829 278.844 126.061 279.684C126.655 281.829 127.184 283.998 127.88 286.109C137.837 316.355 152.461 344.253 170.415 370.47C181.908 369.619 191.955 372.611 199.778 381.513C200.22 381.788 200.677 382.038 201.097 382.339C215.551 392.668 231.334 391.824 244.527 380.046C246.571 378.221 248.491 376.214 251.093 375.124C251.093 375.124 266.467 367.171 283.388 374.353C287.084 375.95 289.736 378.924 292.772 381.404C303.247 389.963 314.875 391.969 327.357 386.645C347.029 378.253 355.935 350.906 345.75 330.849V330.852Z" fill="#01C655"/>
<path d="M149.08 80.493C146.964 79.2905 146.011 77.3565 145.873 75.035C145.75 73.0032 146.381 71.033 146.71 69.0447C147.613 63.594 148.569 58.1541 149.504 52.707C149.598 52.6998 149.7 52.7107 149.787 52.6817C154.99 50.9795 160.186 49.2592 165.396 47.5823C165.932 47.4085 165.748 47.1586 165.646 46.8905C164.824 44.7211 163.78 42.664 162.396 40.7952C162.113 40.4113 161.74 40.1179 161.262 39.9658C154.671 37.8398 148.08 35.6994 141.485 33.5771C138.569 32.639 135.641 31.7227 132.717 30.7992C133.177 28.4704 135.561 26.2575 138.166 25.87C144.359 24.9501 150.558 24.0736 156.754 23.1791C157.62 23.0523 158.486 22.9038 159.352 22.7662C160.396 24.5807 161.74 26.1815 162.95 27.8765C164.827 30.495 166.715 33.1062 168.603 35.7175C169.288 36.6664 169.404 36.6918 170.28 35.9565C171.636 34.8157 172.839 33.53 173.973 32.161C174.73 31.2447 175.009 30.3066 175.005 29.1296C174.973 19.4197 174.991 9.71348 174.994 0.00362198C177.987 -0.00362148 180.122 1.4161 181.448 4.03099C183.404 7.89175 185.292 11.7851 187.205 15.6676C188.361 18.0181 189.51 20.3722 190.662 22.7264C190.412 23.132 190.191 23.5557 189.912 23.936C187.002 27.9525 184.086 31.9654 181.165 35.9783C180.828 36.4419 180.705 36.7425 181.339 37.1553C182.622 37.992 183.97 38.6982 185.368 39.2813C186.477 39.7412 187.575 40.4004 188.905 39.9658C193.535 38.4447 198.173 36.9489 202.811 35.4531C207.627 33.8994 212.449 32.3493 217.265 30.7992C218.196 33.6097 217.497 36.0435 215.457 38.0897C212.906 40.6467 210.29 43.1421 207.703 45.6628C205.297 48.006 202.887 50.3457 200.478 52.6889C198.97 52.2181 197.459 51.7582 195.956 51.2728C192.347 50.103 188.734 48.9368 185.14 47.7235C184.332 47.4519 184.053 47.6366 183.828 48.4551C183.368 50.1392 183.165 51.8559 183.013 53.5763C182.941 54.3948 182.796 55.2567 183.372 56.0463C188.336 62.8588 193.271 69.6893 198.235 76.5018C199.177 77.7948 200.007 79.1783 201.141 80.3264C199.028 82.0865 196.651 82.2821 194.213 81.2608C192.437 80.5147 190.767 79.5223 189.057 78.6278C184.6 76.2881 180.147 73.9413 175.687 71.6016C175.466 71.4857 175.226 71.3988 174.994 71.2974C174.991 69.903 174.98 68.5087 174.98 67.1143C174.98 63.058 174.98 59.0016 174.98 54.9489C174.98 54.46 175.045 53.9602 174.284 54.0398C172.089 54.268 169.904 54.5433 167.795 55.2386C167.219 55.427 166.798 55.7602 166.454 56.231C164.932 58.3243 163.411 60.4141 161.889 62.5074C158.153 67.6322 154.403 72.7461 150.7 77.8926C150.106 78.7183 149.225 79.3883 149.076 80.4966L149.08 80.493Z" fill="#FECD00"/>
<path d="M201.144 80.3264C200.01 79.1783 199.18 77.7948 198.238 76.5018C193.274 69.6893 188.343 62.8551 183.375 56.0463C182.799 55.2567 182.944 54.3948 183.017 53.5763C183.169 51.8559 183.372 50.1392 183.832 48.4551C184.056 47.6366 184.335 47.4519 185.143 47.7235C188.738 48.9368 192.35 50.103 195.959 51.2728C197.463 51.7618 198.974 52.2181 200.481 52.6889C201.025 55.963 201.557 59.2406 202.112 62.5147C202.753 66.3211 203.518 70.1095 204.025 73.9304C204.373 76.5525 203.38 78.7654 201.144 80.3264V80.3264Z" fill="#FED631"/>
<path d="M217.268 30.7992C212.449 32.3493 207.63 33.8994 202.815 35.4531C198.177 36.9489 193.539 38.4447 188.908 39.9658C187.582 40.404 186.481 39.7412 185.372 39.2813C183.973 38.6982 182.625 37.992 181.343 37.1553C180.705 36.7388 180.828 36.4419 181.169 35.9783C184.089 31.969 187.006 27.9561 189.916 23.936C190.195 23.5521 190.416 23.1284 190.666 22.7264C193.256 23.132 195.847 23.5521 198.445 23.936C202.887 24.5916 207.348 25.1493 211.775 25.899C214.547 26.3698 216.435 28.0539 217.276 30.7992H217.268Z" fill="#FED631"/>
<path d="M132.717 30.7956C135.641 31.7191 138.565 32.6318 141.485 33.5734C148.08 35.6958 154.667 37.8362 161.262 39.9622C161.737 40.1143 162.11 40.4076 162.396 40.7915C163.784 42.6604 164.824 44.7175 165.646 46.8869C165.748 47.1549 165.932 47.4048 165.396 47.5787C160.186 49.2555 154.99 50.9722 149.787 52.6781C149.7 52.707 149.598 52.6962 149.504 52.7034C144.518 47.8322 139.525 42.9682 134.547 38.0897C132.601 36.1847 131.945 33.8849 132.536 31.2302C132.568 31.0781 132.659 30.9404 132.721 30.7956H132.717Z" fill="#FED631"/>
<path d="M174.994 0C174.991 9.70986 174.969 19.4161 175.005 29.126C175.009 30.303 174.726 31.241 173.973 32.1573C172.842 33.5264 171.636 34.8121 170.28 35.9529C169.407 36.6917 169.288 36.6628 168.603 35.7139C166.715 33.1026 164.827 30.4913 162.95 27.8728C161.736 26.1779 160.392 24.5771 159.352 22.7626C160.226 20.9408 161.084 19.1119 161.976 17.301C164.153 12.8753 166.327 8.45312 168.534 4.04547C169.856 1.40523 172.034 0.0615694 174.994 0Z" fill="#FED631"/>
<path d="M149.08 80.493C149.229 79.3811 150.113 78.7147 150.703 77.8889C154.406 72.7388 158.157 67.6286 161.892 62.5038C163.418 60.4141 164.94 58.3207 166.458 56.2274C166.802 55.7565 167.222 55.4233 167.798 55.235C169.911 54.5396 172.092 54.2644 174.288 54.0362C175.049 53.9565 174.984 54.4563 174.984 54.9453C174.98 59.0016 174.984 63.0579 174.984 67.1107C174.984 68.505 174.994 69.8994 174.998 71.2938C172.425 72.4346 169.994 73.8543 167.498 75.1437C163.762 77.0777 160.066 79.0877 156.312 80.9855C153.845 82.2314 151.388 82.1662 149.08 80.493V80.493Z" fill="#FED631"/>
</g>
<defs>
<clipPath id="clip0_22_4">
<rect width="350" height="414" fill="white"/>
</clipPath>
</defs>
</svg>
