<svg width="36" height="33" viewBox="0 0 36 33" fill="none" xmlns="http://www.w3.org/2000/svg">
<path d="M18 0C8.05864 0 0 6.20471 0 13.8589C0 18.8412 3.41481 23.2068 8.53888 25.6498C8.16215 27.0194 7.17557 30.6094 6.97788 31.3777C6.7345 32.3313 7.33689 32.3186 7.73134 32.0616C8.04093 31.8609 12.6642 28.8003 14.6589 27.4789C15.7415 27.6351 16.8577 27.7177 18 27.7177C27.9414 27.7177 36 21.5121 36 13.8589C36 6.20562 27.9414 0 18 0Z" fill="white" fill-opacity="0.5"/>
<path d="M10.7564 10.0651H5.49334C4.99819 10.0651 4.59814 10.4671 4.59814 10.9626C4.59814 11.4581 4.99912 11.8601 5.49334 11.8601H7.20448V18.1818C7.20448 18.4118 7.29772 18.638 7.46184 18.8017C7.62223 18.9643 7.84697 19.0578 8.07729 19.0578H8.26845C8.49785 19.0578 8.72165 18.9643 8.88297 18.8017C9.04709 18.638 9.14034 18.4127 9.14034 18.1818V11.8601H10.7564C11.2515 11.8601 11.6525 11.4581 11.6525 10.9626C11.6525 10.4671 11.2515 10.0651 10.7564 10.0651V10.0651Z" fill="white" fill-opacity="0.75"/>
<path d="M23.4067 17.3694H20.9589V10.913C20.9589 10.3745 20.5244 9.93884 19.9882 9.93884C19.452 9.93884 19.0175 10.3745 19.0175 10.913V17.8724C19.0175 17.9266 19.024 17.9771 19.0324 18.0285C19.0231 18.079 19.0175 18.1313 19.0175 18.1837C19.0175 18.6343 19.3802 18.9989 19.8297 18.9989H23.4067C23.8571 18.9989 24.2189 18.6343 24.2189 18.1837C24.2189 17.7331 23.8562 17.3694 23.4067 17.3694V17.3694Z" fill="white" fill-opacity="0.75"/>
<path d="M31.2284 17.6657L28.5008 14.0739L30.9654 11.602C31.2993 11.2683 31.2993 10.7251 30.9654 10.3904C30.6316 10.0557 30.0907 10.0557 29.756 10.3904L26.7048 13.4494V10.913C26.7048 10.3745 26.2703 9.93884 25.7341 9.93884C25.1979 9.93884 24.7625 10.3745 24.7625 10.913V18.0864C24.7625 18.6249 25.197 19.0606 25.7341 19.0606C26.2712 19.0606 26.7048 18.6259 26.7048 18.0864V15.8736L27.2597 15.3182L29.8399 18.7128C30.1271 19.0971 30.6726 19.1765 31.0559 18.8858C31.4391 18.5969 31.5165 18.0509 31.2284 17.6657V17.6657Z" fill="white" fill-opacity="0.75"/>
<path d="M18.2899 17.8986L15.6668 10.7036C15.6668 10.7036 15.6603 10.698 15.6584 10.6952C15.4906 10.2567 15.0066 9.93793 14.4294 9.93793C13.7888 9.93793 13.2591 10.3306 13.1537 10.8438C13.136 10.8822 13.1183 10.9205 13.1034 10.9616L10.5241 17.8986C10.3646 18.3538 10.6034 18.8512 11.0556 19.0111C11.5088 19.1709 12.0058 18.9316 12.1653 18.4773L12.612 17.2002H16.2021L16.6478 18.4773C16.8073 18.9316 17.3043 19.1709 17.7575 19.0111C18.2107 18.8512 18.4494 18.3538 18.2899 17.8986ZM13.1817 15.5688L14.3884 12.1172C14.4024 12.1172 14.4135 12.1209 14.4275 12.1209L15.6333 15.5688H13.1826H13.1817Z" fill="white" fill-opacity="0.75"/>
</svg>
